G04 #@! TF.GenerationSoftware,KiCad,Pcbnew,(5.99.0-11247-g3f6811f413)*
G04 #@! TF.CreationDate,2021-07-10T09:42:12+02:00*
G04 #@! TF.ProjectId,blackwing,626c6163-6b77-4696-9e67-2e6b69636164,rev?*
G04 #@! TF.SameCoordinates,Original*
G04 #@! TF.FileFunction,Profile,NP*
%FSLAX46Y46*%
G04 Gerber Fmt 4.6, Leading zero omitted, Abs format (unit mm)*
G04 Created by KiCad (PCBNEW (5.99.0-11247-g3f6811f413)) date 2021-07-10 09:42:12*
%MOMM*%
%LPD*%
G01*
G04 APERTURE LIST*
G04 #@! TA.AperFunction,Profile*
%ADD10C,0.150000*%
G04 #@! TD*
G04 #@! TA.AperFunction,Profile*
%ADD11C,0.188976*%
G04 #@! TD*
G04 APERTURE END LIST*
D10*
X63985071Y7340062D02*
X82885072Y7327562D01*
X-3925277Y-93593222D02*
X24314225Y-119020185D01*
X139885072Y-97172437D02*
X63885071Y-97172438D01*
X24314225Y-119020185D02*
X30670966Y-111960309D01*
X15144946Y-72413594D02*
G75*
G03*
X25885071Y-45012437I-30321165J27690069D01*
G01*
X82885072Y7327562D02*
X139885072Y-2172437D01*
X25885071Y2577563D02*
X25885071Y-45012437D01*
X-3925277Y-93593222D02*
X15144946Y-72413595D01*
X139885072Y-2172437D02*
X139885072Y-97172437D01*
X25885071Y2577563D02*
X63985071Y7340062D01*
X30670967Y-111960310D02*
G75*
G02*
X63885071Y-97172438I33214104J-29906113D01*
G01*
D11*
X123385071Y-65772443D02*
X123385071Y-71572438D01*
X122585070Y-62672437D02*
X122585070Y-65772443D01*
X137385070Y-71572438D02*
X137385070Y-65772443D01*
X138185069Y-74672437D02*
X138185069Y-71572438D01*
X137385070Y-75672437D02*
X137385070Y-74672437D01*
X137385070Y-62672437D02*
X137385070Y-61672437D01*
X122585070Y-74672437D02*
X123385071Y-74672437D01*
X123385071Y-74672437D02*
X123385071Y-75672437D01*
X123385071Y-62672437D02*
X122585070Y-62672437D01*
X138185069Y-65772443D02*
X138185069Y-62672437D01*
X137385070Y-74672437D02*
X138185069Y-74672437D01*
X138185069Y-62672437D02*
X137385070Y-62672437D01*
X137385070Y-61672437D02*
X123385071Y-61672437D01*
X122585070Y-71572438D02*
X122585070Y-74672437D01*
X138185069Y-71572438D02*
X137385070Y-71572438D01*
X123385071Y-71572438D02*
X122585070Y-71572438D01*
X123385071Y-75672437D02*
X137385070Y-75672437D01*
X137385070Y-65772443D02*
X138185069Y-65772443D01*
X122585070Y-65772443D02*
X123385071Y-65772443D01*
X123385071Y-61672437D02*
X123385071Y-62672437D01*
X12445026Y-98577233D02*
X13188171Y-99246364D01*
X11909721Y-99171750D02*
X12445026Y-98577233D01*
X13430419Y-79549124D02*
X12895116Y-80143639D01*
X12151971Y-79474508D02*
X2784143Y-89878535D01*
X5295736Y-93216491D02*
X5831041Y-92621975D01*
X15734173Y-81623433D02*
X13430419Y-79549124D01*
X21812854Y-88173206D02*
X22348157Y-87578691D01*
X9605972Y-97097445D02*
X11909721Y-99171750D01*
X19509105Y-86098902D02*
X15198869Y-82217948D01*
X10141278Y-96502929D02*
X9605972Y-97097445D01*
X2991983Y-91142182D02*
X5295736Y-93216491D01*
X20044409Y-85504387D02*
X19509105Y-86098902D01*
X22555998Y-88842337D02*
X21812854Y-88173206D01*
X3527288Y-90547666D02*
X2991983Y-91142182D01*
X22348157Y-87578691D02*
X20044409Y-85504387D01*
X2784143Y-89878535D02*
X3527288Y-90547666D01*
X5831041Y-92621975D02*
X10141278Y-96502929D01*
X15198869Y-82217948D02*
X15734173Y-81623433D01*
X12895116Y-80143639D02*
X12151971Y-79474508D01*
X13188171Y-99246364D02*
X22555998Y-88842337D01*
X99635071Y-84772443D02*
X99635071Y-90572438D01*
X98835070Y-81672437D02*
X98835070Y-84772443D01*
X113635070Y-90572438D02*
X113635070Y-84772443D01*
X114435069Y-93672437D02*
X114435069Y-90572438D01*
X113635070Y-94672437D02*
X113635070Y-93672437D01*
X113635070Y-81672437D02*
X113635070Y-80672437D01*
X98835070Y-93672437D02*
X99635071Y-93672437D01*
X99635071Y-93672437D02*
X99635071Y-94672437D01*
X99635071Y-81672437D02*
X98835070Y-81672437D01*
X114435069Y-84772443D02*
X114435069Y-81672437D01*
X113635070Y-93672437D02*
X114435069Y-93672437D01*
X114435069Y-81672437D02*
X113635070Y-81672437D01*
X113635070Y-80672437D02*
X99635071Y-80672437D01*
X98835070Y-90572438D02*
X98835070Y-93672437D01*
X114435069Y-90572438D02*
X113635070Y-90572438D01*
X99635071Y-90572438D02*
X98835070Y-90572438D01*
X99635071Y-94672437D02*
X113635070Y-94672437D01*
X113635070Y-84772443D02*
X114435069Y-84772443D01*
X98835070Y-84772443D02*
X99635071Y-84772443D01*
X99635071Y-80672437D02*
X99635071Y-81672437D01*
X104385071Y-65772443D02*
X104385071Y-71572438D01*
X103585070Y-62672437D02*
X103585070Y-65772443D01*
X118385070Y-71572438D02*
X118385070Y-65772443D01*
X119185069Y-74672437D02*
X119185069Y-71572438D01*
X118385070Y-75672437D02*
X118385070Y-74672437D01*
X118385070Y-62672437D02*
X118385070Y-61672437D01*
X103585070Y-74672437D02*
X104385071Y-74672437D01*
X104385071Y-74672437D02*
X104385071Y-75672437D01*
X104385071Y-62672437D02*
X103585070Y-62672437D01*
X119185069Y-65772443D02*
X119185069Y-62672437D01*
X118385070Y-74672437D02*
X119185069Y-74672437D01*
X119185069Y-62672437D02*
X118385070Y-62672437D01*
X118385070Y-61672437D02*
X104385071Y-61672437D01*
X103585070Y-71572438D02*
X103585070Y-74672437D01*
X119185069Y-71572438D02*
X118385070Y-71572438D01*
X104385071Y-71572438D02*
X103585070Y-71572438D01*
X104385071Y-75672437D02*
X118385070Y-75672437D01*
X118385070Y-65772443D02*
X119185069Y-65772443D01*
X103585070Y-65772443D02*
X104385071Y-65772443D01*
X104385071Y-61672437D02*
X104385071Y-62672437D01*
X16772041Y-108864976D02*
X21082278Y-112745930D01*
X13932983Y-107385183D02*
X16236736Y-109459492D01*
X30450105Y-102341903D02*
X26139869Y-98460949D01*
X33289157Y-103821692D02*
X30985409Y-101747388D01*
X33496998Y-105085338D02*
X32753854Y-104416207D01*
X23836116Y-96386640D02*
X23092971Y-95717509D01*
X22850721Y-115414751D02*
X23386026Y-114820234D01*
X23386026Y-114820234D02*
X24129171Y-115489365D01*
X14468288Y-106790667D02*
X13932983Y-107385183D01*
X26675173Y-97866434D02*
X24371419Y-95792125D01*
X32753854Y-104416207D02*
X33289157Y-103821692D01*
X24371419Y-95792125D02*
X23836116Y-96386640D01*
X23092971Y-95717509D02*
X13725143Y-106121536D01*
X20546972Y-113340446D02*
X22850721Y-115414751D01*
X30985409Y-101747388D02*
X30450105Y-102341903D01*
X21082278Y-112745930D02*
X20546972Y-113340446D01*
X24129171Y-115489365D02*
X33496998Y-105085338D01*
X26139869Y-98460949D02*
X26675173Y-97866434D01*
X16236736Y-109459492D02*
X16772041Y-108864976D01*
X13725143Y-106121536D02*
X14468288Y-106790667D01*
X34267720Y-92555317D02*
X36626791Y-97853876D01*
X32275997Y-90048710D02*
X33536883Y-92880707D01*
X49416426Y-92159564D02*
X47057356Y-86861005D01*
X51408145Y-94666165D02*
X50147262Y-91834175D01*
X51084046Y-95905099D02*
X50677309Y-94991554D01*
X45796470Y-84029008D02*
X45389733Y-83115463D01*
X37156837Y-101011256D02*
X37887674Y-100685866D01*
X37887674Y-100685866D02*
X38294411Y-101599412D01*
X33006834Y-89723321D02*
X32275997Y-90048710D01*
X47788191Y-86535616D02*
X46527305Y-83703619D01*
X50677309Y-94991554D02*
X51408145Y-94666165D01*
X46527305Y-83703619D02*
X45796470Y-84029008D01*
X45389733Y-83115463D02*
X32600098Y-88809775D01*
X35895954Y-98179266D02*
X37156837Y-101011256D01*
X50147262Y-91834175D02*
X49416426Y-92159564D01*
X36626791Y-97853876D02*
X35895954Y-98179266D01*
X38294411Y-101599412D02*
X51084046Y-95905099D01*
X47057356Y-86861005D02*
X47788191Y-86535616D01*
X33536883Y-92880707D02*
X34267720Y-92555317D01*
X32600098Y-88809775D02*
X33006834Y-89723321D01*
X56885071Y-84772443D02*
X56885071Y-90572438D01*
X56085070Y-81672437D02*
X56085070Y-84772443D01*
X70885070Y-90572438D02*
X70885070Y-84772443D01*
X71685069Y-93672437D02*
X71685069Y-90572438D01*
X70885070Y-94672437D02*
X70885070Y-93672437D01*
X70885070Y-81672437D02*
X70885070Y-80672437D01*
X56085070Y-93672437D02*
X56885071Y-93672437D01*
X56885071Y-93672437D02*
X56885071Y-94672437D01*
X56885071Y-81672437D02*
X56085070Y-81672437D01*
X71685069Y-84772443D02*
X71685069Y-81672437D01*
X70885070Y-93672437D02*
X71685069Y-93672437D01*
X71685069Y-81672437D02*
X70885070Y-81672437D01*
X70885070Y-80672437D02*
X56885071Y-80672437D01*
X56085070Y-90572438D02*
X56085070Y-93672437D01*
X71685069Y-90572438D02*
X70885070Y-90572438D01*
X56885071Y-90572438D02*
X56085070Y-90572438D01*
X56885071Y-94672437D02*
X70885070Y-94672437D01*
X70885070Y-84772443D02*
X71685069Y-84772443D01*
X56085070Y-84772443D02*
X56885071Y-84772443D01*
X56885071Y-80672437D02*
X56885071Y-81672437D01*
X92260070Y-93672437D02*
X93060069Y-93672437D01*
X93060069Y-90572438D02*
X92260070Y-90572438D01*
X93060069Y-93672437D02*
X93060069Y-90572438D01*
X77460070Y-81672437D02*
X77460070Y-84772443D01*
X92260070Y-90572438D02*
X92260070Y-84772443D01*
X78260071Y-94672437D02*
X92260070Y-94672437D01*
X78260071Y-81672437D02*
X77460070Y-81672437D01*
X77460070Y-84772443D02*
X78260071Y-84772443D01*
X77460070Y-93672437D02*
X78260071Y-93672437D01*
X92260070Y-80672437D02*
X78260071Y-80672437D01*
X78260071Y-80672437D02*
X78260071Y-81672437D01*
X93060069Y-84772443D02*
X93060069Y-81672437D01*
X93060069Y-81672437D02*
X92260070Y-81672437D01*
X78260071Y-90572438D02*
X77460070Y-90572438D01*
X92260070Y-94672437D02*
X92260070Y-93672437D01*
X92260070Y-84772443D02*
X93060069Y-84772443D01*
X77460070Y-90572438D02*
X77460070Y-93672437D01*
X92260070Y-81672437D02*
X92260070Y-80672437D01*
X78260071Y-84772443D02*
X78260071Y-90572438D01*
X78260071Y-93672437D02*
X78260071Y-94672437D01*
X135010071Y-93672437D02*
X135810070Y-93672437D01*
X135810070Y-90572438D02*
X135010071Y-90572438D01*
X135810070Y-93672437D02*
X135810070Y-90572438D01*
X120210071Y-81672437D02*
X120210071Y-84772443D01*
X135010071Y-90572438D02*
X135010071Y-84772443D01*
X121010072Y-94672437D02*
X135010071Y-94672437D01*
X121010072Y-81672437D02*
X120210071Y-81672437D01*
X120210071Y-84772443D02*
X121010072Y-84772443D01*
X120210071Y-93672437D02*
X121010072Y-93672437D01*
X135010071Y-80672437D02*
X121010072Y-80672437D01*
X121010072Y-80672437D02*
X121010072Y-81672437D01*
X135810070Y-84772443D02*
X135810070Y-81672437D01*
X135810070Y-81672437D02*
X135010071Y-81672437D01*
X121010072Y-90572438D02*
X120210071Y-90572438D01*
X135010071Y-94672437D02*
X135010071Y-93672437D01*
X135010071Y-84772443D02*
X135810070Y-84772443D01*
X120210071Y-90572438D02*
X120210071Y-93672437D01*
X135010071Y-81672437D02*
X135010071Y-80672437D01*
X121010072Y-84772443D02*
X121010072Y-90572438D01*
X121010072Y-93672437D02*
X121010072Y-94672437D01*
X47385072Y-42022444D02*
X47385072Y-47822439D01*
X46585071Y-38922438D02*
X46585071Y-42022444D01*
X61385071Y-47822439D02*
X61385071Y-42022444D01*
X62185070Y-50922438D02*
X62185070Y-47822439D01*
X61385071Y-51922438D02*
X61385071Y-50922438D01*
X61385071Y-38922438D02*
X61385071Y-37922438D01*
X46585071Y-50922438D02*
X47385072Y-50922438D01*
X47385072Y-50922438D02*
X47385072Y-51922438D01*
X47385072Y-38922438D02*
X46585071Y-38922438D01*
X62185070Y-42022444D02*
X62185070Y-38922438D01*
X61385071Y-50922438D02*
X62185070Y-50922438D01*
X62185070Y-38922438D02*
X61385071Y-38922438D01*
X61385071Y-37922438D02*
X47385072Y-37922438D01*
X46585071Y-47822439D02*
X46585071Y-50922438D01*
X62185070Y-47822439D02*
X61385071Y-47822439D01*
X47385072Y-47822439D02*
X46585071Y-47822439D01*
X47385072Y-51922438D02*
X61385071Y-51922438D01*
X61385071Y-42022444D02*
X62185070Y-42022444D01*
X46585071Y-42022444D02*
X47385072Y-42022444D01*
X47385072Y-37922438D02*
X47385072Y-38922438D01*
X28385072Y-42022443D02*
X28385072Y-47822438D01*
X27585071Y-38922437D02*
X27585071Y-42022443D01*
X42385071Y-47822438D02*
X42385071Y-42022443D01*
X43185070Y-50922437D02*
X43185070Y-47822438D01*
X42385071Y-51922437D02*
X42385071Y-50922437D01*
X42385071Y-38922437D02*
X42385071Y-37922437D01*
X27585071Y-50922437D02*
X28385072Y-50922437D01*
X28385072Y-50922437D02*
X28385072Y-51922437D01*
X28385072Y-38922437D02*
X27585071Y-38922437D01*
X43185070Y-42022443D02*
X43185070Y-38922437D01*
X42385071Y-50922437D02*
X43185070Y-50922437D01*
X43185070Y-38922437D02*
X42385071Y-38922437D01*
X42385071Y-37922437D02*
X28385072Y-37922437D01*
X27585071Y-47822438D02*
X27585071Y-50922437D01*
X43185070Y-47822438D02*
X42385071Y-47822438D01*
X28385072Y-47822438D02*
X27585071Y-47822438D01*
X28385072Y-51922437D02*
X42385071Y-51922437D01*
X42385071Y-42022443D02*
X43185070Y-42022443D01*
X27585071Y-42022443D02*
X28385072Y-42022443D01*
X28385072Y-37922437D02*
X28385072Y-38922437D01*
X123385072Y-27772443D02*
X123385072Y-33572438D01*
X122585071Y-24672437D02*
X122585071Y-27772443D01*
X137385071Y-33572438D02*
X137385071Y-27772443D01*
X138185070Y-36672437D02*
X138185070Y-33572438D01*
X137385071Y-37672437D02*
X137385071Y-36672437D01*
X137385071Y-24672437D02*
X137385071Y-23672437D01*
X122585071Y-36672437D02*
X123385072Y-36672437D01*
X123385072Y-36672437D02*
X123385072Y-37672437D01*
X123385072Y-24672437D02*
X122585071Y-24672437D01*
X138185070Y-27772443D02*
X138185070Y-24672437D01*
X137385071Y-36672437D02*
X138185070Y-36672437D01*
X138185070Y-24672437D02*
X137385071Y-24672437D01*
X137385071Y-23672437D02*
X123385072Y-23672437D01*
X122585071Y-33572438D02*
X122585071Y-36672437D01*
X138185070Y-33572438D02*
X137385071Y-33572438D01*
X123385072Y-33572438D02*
X122585071Y-33572438D01*
X123385072Y-37672437D02*
X137385071Y-37672437D01*
X137385071Y-27772443D02*
X138185070Y-27772443D01*
X122585071Y-27772443D02*
X123385072Y-27772443D01*
X123385072Y-23672437D02*
X123385072Y-24672437D01*
X104385071Y-27772443D02*
X104385071Y-33572438D01*
X103585070Y-24672437D02*
X103585070Y-27772443D01*
X118385070Y-33572438D02*
X118385070Y-27772443D01*
X119185069Y-36672437D02*
X119185069Y-33572438D01*
X118385070Y-37672437D02*
X118385070Y-36672437D01*
X118385070Y-24672437D02*
X118385070Y-23672437D01*
X103585070Y-36672437D02*
X104385071Y-36672437D01*
X104385071Y-36672437D02*
X104385071Y-37672437D01*
X104385071Y-24672437D02*
X103585070Y-24672437D01*
X119185069Y-27772443D02*
X119185069Y-24672437D01*
X118385070Y-36672437D02*
X119185069Y-36672437D01*
X119185069Y-24672437D02*
X118385070Y-24672437D01*
X118385070Y-23672437D02*
X104385071Y-23672437D01*
X103585070Y-33572438D02*
X103585070Y-36672437D01*
X119185069Y-33572438D02*
X118385070Y-33572438D01*
X104385071Y-33572438D02*
X103585070Y-33572438D01*
X104385071Y-37672437D02*
X118385070Y-37672437D01*
X118385070Y-27772443D02*
X119185069Y-27772443D01*
X103585070Y-27772443D02*
X104385071Y-27772443D01*
X104385071Y-23672437D02*
X104385071Y-24672437D01*
X85385072Y-23022444D02*
X85385072Y-28822439D01*
X84585071Y-19922438D02*
X84585071Y-23022444D01*
X99385071Y-28822439D02*
X99385071Y-23022444D01*
X100185070Y-31922438D02*
X100185070Y-28822439D01*
X99385071Y-32922438D02*
X99385071Y-31922438D01*
X99385071Y-19922438D02*
X99385071Y-18922438D01*
X84585071Y-31922438D02*
X85385072Y-31922438D01*
X85385072Y-31922438D02*
X85385072Y-32922438D01*
X85385072Y-19922438D02*
X84585071Y-19922438D01*
X100185070Y-23022444D02*
X100185070Y-19922438D01*
X99385071Y-31922438D02*
X100185070Y-31922438D01*
X100185070Y-19922438D02*
X99385071Y-19922438D01*
X99385071Y-18922438D02*
X85385072Y-18922438D01*
X84585071Y-28822439D02*
X84585071Y-31922438D01*
X100185070Y-28822439D02*
X99385071Y-28822439D01*
X85385072Y-28822439D02*
X84585071Y-28822439D01*
X85385072Y-32922438D02*
X99385071Y-32922438D01*
X99385071Y-23022444D02*
X100185070Y-23022444D01*
X84585071Y-23022444D02*
X85385072Y-23022444D01*
X85385072Y-18922438D02*
X85385072Y-19922438D01*
X66385072Y-18272444D02*
X66385072Y-24072439D01*
X65585071Y-15172438D02*
X65585071Y-18272444D01*
X80385071Y-24072439D02*
X80385071Y-18272444D01*
X81185070Y-27172438D02*
X81185070Y-24072439D01*
X80385071Y-28172438D02*
X80385071Y-27172438D01*
X80385071Y-15172438D02*
X80385071Y-14172438D01*
X65585071Y-27172438D02*
X66385072Y-27172438D01*
X66385072Y-27172438D02*
X66385072Y-28172438D01*
X66385072Y-15172438D02*
X65585071Y-15172438D01*
X81185070Y-18272444D02*
X81185070Y-15172438D01*
X80385071Y-27172438D02*
X81185070Y-27172438D01*
X81185070Y-15172438D02*
X80385071Y-15172438D01*
X80385071Y-14172438D02*
X66385072Y-14172438D01*
X65585071Y-24072439D02*
X65585071Y-27172438D01*
X81185070Y-24072439D02*
X80385071Y-24072439D01*
X66385072Y-24072439D02*
X65585071Y-24072439D01*
X66385072Y-28172438D02*
X80385071Y-28172438D01*
X80385071Y-18272444D02*
X81185070Y-18272444D01*
X65585071Y-18272444D02*
X66385072Y-18272444D01*
X66385072Y-14172438D02*
X66385072Y-15172438D01*
X47385071Y-23022443D02*
X47385071Y-28822438D01*
X46585070Y-19922437D02*
X46585070Y-23022443D01*
X61385070Y-28822438D02*
X61385070Y-23022443D01*
X62185069Y-31922437D02*
X62185069Y-28822438D01*
X61385070Y-32922437D02*
X61385070Y-31922437D01*
X61385070Y-19922437D02*
X61385070Y-18922437D01*
X46585070Y-31922437D02*
X47385071Y-31922437D01*
X47385071Y-31922437D02*
X47385071Y-32922437D01*
X47385071Y-19922437D02*
X46585070Y-19922437D01*
X62185069Y-23022443D02*
X62185069Y-19922437D01*
X61385070Y-31922437D02*
X62185069Y-31922437D01*
X62185069Y-19922437D02*
X61385070Y-19922437D01*
X61385070Y-18922437D02*
X47385071Y-18922437D01*
X46585070Y-28822438D02*
X46585070Y-31922437D01*
X62185069Y-28822438D02*
X61385070Y-28822438D01*
X47385071Y-28822438D02*
X46585070Y-28822438D01*
X47385071Y-32922437D02*
X61385070Y-32922437D01*
X61385070Y-23022443D02*
X62185069Y-23022443D01*
X46585070Y-23022443D02*
X47385071Y-23022443D01*
X47385071Y-18922437D02*
X47385071Y-19922437D01*
X28385071Y-23022443D02*
X28385071Y-28822438D01*
X27585070Y-19922437D02*
X27585070Y-23022443D01*
X42385070Y-28822438D02*
X42385070Y-23022443D01*
X43185069Y-31922437D02*
X43185069Y-28822438D01*
X42385070Y-32922437D02*
X42385070Y-31922437D01*
X42385070Y-19922437D02*
X42385070Y-18922437D01*
X27585070Y-31922437D02*
X28385071Y-31922437D01*
X28385071Y-31922437D02*
X28385071Y-32922437D01*
X28385071Y-19922437D02*
X27585070Y-19922437D01*
X43185069Y-23022443D02*
X43185069Y-19922437D01*
X42385070Y-31922437D02*
X43185069Y-31922437D01*
X43185069Y-19922437D02*
X42385070Y-19922437D01*
X42385070Y-18922437D02*
X28385071Y-18922437D01*
X27585070Y-28822438D02*
X27585070Y-31922437D01*
X43185069Y-28822438D02*
X42385070Y-28822438D01*
X28385071Y-28822438D02*
X27585070Y-28822438D01*
X28385071Y-32922437D02*
X42385070Y-32922437D01*
X42385070Y-23022443D02*
X43185069Y-23022443D01*
X27585070Y-23022443D02*
X28385071Y-23022443D01*
X28385071Y-18922437D02*
X28385071Y-19922437D01*
X123385071Y-8772443D02*
X123385071Y-14572438D01*
X122585070Y-5672437D02*
X122585070Y-8772443D01*
X137385070Y-14572438D02*
X137385070Y-8772443D01*
X138185069Y-17672437D02*
X138185069Y-14572438D01*
X137385070Y-18672437D02*
X137385070Y-17672437D01*
X137385070Y-5672437D02*
X137385070Y-4672437D01*
X122585070Y-17672437D02*
X123385071Y-17672437D01*
X123385071Y-17672437D02*
X123385071Y-18672437D01*
X123385071Y-5672437D02*
X122585070Y-5672437D01*
X138185069Y-8772443D02*
X138185069Y-5672437D01*
X137385070Y-17672437D02*
X138185069Y-17672437D01*
X138185069Y-5672437D02*
X137385070Y-5672437D01*
X137385070Y-4672437D02*
X123385071Y-4672437D01*
X122585070Y-14572438D02*
X122585070Y-17672437D01*
X138185069Y-14572438D02*
X137385070Y-14572438D01*
X123385071Y-14572438D02*
X122585070Y-14572438D01*
X123385071Y-18672437D02*
X137385070Y-18672437D01*
X137385070Y-8772443D02*
X138185069Y-8772443D01*
X122585070Y-8772443D02*
X123385071Y-8772443D01*
X123385071Y-4672437D02*
X123385071Y-5672437D01*
X104385071Y-8772443D02*
X104385071Y-14572438D01*
X103585070Y-5672437D02*
X103585070Y-8772443D01*
X118385070Y-14572438D02*
X118385070Y-8772443D01*
X119185069Y-17672437D02*
X119185069Y-14572438D01*
X118385070Y-18672437D02*
X118385070Y-17672437D01*
X118385070Y-5672437D02*
X118385070Y-4672437D01*
X103585070Y-17672437D02*
X104385071Y-17672437D01*
X104385071Y-17672437D02*
X104385071Y-18672437D01*
X104385071Y-5672437D02*
X103585070Y-5672437D01*
X119185069Y-8772443D02*
X119185069Y-5672437D01*
X118385070Y-17672437D02*
X119185069Y-17672437D01*
X119185069Y-5672437D02*
X118385070Y-5672437D01*
X118385070Y-4672437D02*
X104385071Y-4672437D01*
X103585070Y-14572438D02*
X103585070Y-17672437D01*
X119185069Y-14572438D02*
X118385070Y-14572438D01*
X104385071Y-14572438D02*
X103585070Y-14572438D01*
X104385071Y-18672437D02*
X118385070Y-18672437D01*
X118385070Y-8772443D02*
X119185069Y-8772443D01*
X103585070Y-8772443D02*
X104385071Y-8772443D01*
X104385071Y-4672437D02*
X104385071Y-5672437D01*
X85385071Y-4022444D02*
X85385071Y-9822439D01*
X84585070Y-922438D02*
X84585070Y-4022444D01*
X99385070Y-9822439D02*
X99385070Y-4022444D01*
X100185069Y-12922438D02*
X100185069Y-9822439D01*
X99385070Y-13922438D02*
X99385070Y-12922438D01*
X99385070Y-922438D02*
X99385070Y77562D01*
X84585070Y-12922438D02*
X85385071Y-12922438D01*
X85385071Y-12922438D02*
X85385071Y-13922438D01*
X85385071Y-922438D02*
X84585070Y-922438D01*
X100185069Y-4022444D02*
X100185069Y-922438D01*
X99385070Y-12922438D02*
X100185069Y-12922438D01*
X100185069Y-922438D02*
X99385070Y-922438D01*
X99385070Y77562D02*
X85385071Y77562D01*
X84585070Y-9822439D02*
X84585070Y-12922438D01*
X100185069Y-9822439D02*
X99385070Y-9822439D01*
X85385071Y-9822439D02*
X84585070Y-9822439D01*
X85385071Y-13922438D02*
X99385070Y-13922438D01*
X99385070Y-4022444D02*
X100185069Y-4022444D01*
X84585070Y-4022444D02*
X85385071Y-4022444D01*
X85385071Y77562D02*
X85385071Y-922438D01*
X66385071Y727557D02*
X66385071Y-5072438D01*
X65585070Y3827563D02*
X65585070Y727557D01*
X80385070Y-5072438D02*
X80385070Y727557D01*
X81185069Y-8172437D02*
X81185069Y-5072438D01*
X80385070Y-9172437D02*
X80385070Y-8172437D01*
X80385070Y3827563D02*
X80385070Y4827563D01*
X65585070Y-8172437D02*
X66385071Y-8172437D01*
X66385071Y-8172437D02*
X66385071Y-9172437D01*
X66385071Y3827563D02*
X65585070Y3827563D01*
X81185069Y727557D02*
X81185069Y3827563D01*
X80385070Y-8172437D02*
X81185069Y-8172437D01*
X81185069Y3827563D02*
X80385070Y3827563D01*
X80385070Y4827563D02*
X66385071Y4827563D01*
X65585070Y-5072438D02*
X65585070Y-8172437D01*
X81185069Y-5072438D02*
X80385070Y-5072438D01*
X66385071Y-5072438D02*
X65585070Y-5072438D01*
X66385071Y-9172437D02*
X80385070Y-9172437D01*
X80385070Y727557D02*
X81185069Y727557D01*
X65585070Y727557D02*
X66385071Y727557D01*
X66385071Y4827563D02*
X66385071Y3827563D01*
X47385072Y-4022443D02*
X47385072Y-9822438D01*
X46585071Y-922437D02*
X46585071Y-4022443D01*
X61385071Y-9822438D02*
X61385071Y-4022443D01*
X62185070Y-12922437D02*
X62185070Y-9822438D01*
X61385071Y-13922437D02*
X61385071Y-12922437D01*
X61385071Y-922437D02*
X61385071Y77563D01*
X46585071Y-12922437D02*
X47385072Y-12922437D01*
X47385072Y-12922437D02*
X47385072Y-13922437D01*
X47385072Y-922437D02*
X46585071Y-922437D01*
X62185070Y-4022443D02*
X62185070Y-922437D01*
X61385071Y-12922437D02*
X62185070Y-12922437D01*
X62185070Y-922437D02*
X61385071Y-922437D01*
X61385071Y77563D02*
X47385072Y77563D01*
X46585071Y-9822438D02*
X46585071Y-12922437D01*
X62185070Y-9822438D02*
X61385071Y-9822438D01*
X47385072Y-9822438D02*
X46585071Y-9822438D01*
X47385072Y-13922437D02*
X61385071Y-13922437D01*
X61385071Y-4022443D02*
X62185070Y-4022443D01*
X46585071Y-4022443D02*
X47385072Y-4022443D01*
X47385072Y77563D02*
X47385072Y-922437D01*
X28385072Y-4022444D02*
X28385072Y-9822439D01*
X27585071Y-922438D02*
X27585071Y-4022444D01*
X42385071Y-9822439D02*
X42385071Y-4022444D01*
X43185070Y-12922438D02*
X43185070Y-9822439D01*
X42385071Y-13922438D02*
X42385071Y-12922438D01*
X42385071Y-922438D02*
X42385071Y77562D01*
X27585071Y-12922438D02*
X28385072Y-12922438D01*
X28385072Y-12922438D02*
X28385072Y-13922438D01*
X28385072Y-922438D02*
X27585071Y-922438D01*
X43185070Y-4022444D02*
X43185070Y-922438D01*
X42385071Y-12922438D02*
X43185070Y-12922438D01*
X43185070Y-922438D02*
X42385071Y-922438D01*
X42385071Y77562D02*
X28385072Y77562D01*
X27585071Y-9822439D02*
X27585071Y-12922438D01*
X43185070Y-9822439D02*
X42385071Y-9822439D01*
X28385072Y-9822439D02*
X27585071Y-9822439D01*
X28385072Y-13922438D02*
X42385071Y-13922438D01*
X42385071Y-4022444D02*
X43185070Y-4022444D01*
X27585071Y-4022444D02*
X28385072Y-4022444D01*
X28385072Y77562D02*
X28385072Y-922438D01*
X85385072Y-42022443D02*
X85385072Y-47822438D01*
X84585071Y-38922437D02*
X84585071Y-42022443D01*
X99385071Y-47822438D02*
X99385071Y-42022443D01*
X100185070Y-50922437D02*
X100185070Y-47822438D01*
X99385071Y-51922437D02*
X99385071Y-50922437D01*
X99385071Y-38922437D02*
X99385071Y-37922437D01*
X84585071Y-50922437D02*
X85385072Y-50922437D01*
X85385072Y-50922437D02*
X85385072Y-51922437D01*
X85385072Y-38922437D02*
X84585071Y-38922437D01*
X100185070Y-42022443D02*
X100185070Y-38922437D01*
X99385071Y-50922437D02*
X100185070Y-50922437D01*
X100185070Y-38922437D02*
X99385071Y-38922437D01*
X99385071Y-37922437D02*
X85385072Y-37922437D01*
X84585071Y-47822438D02*
X84585071Y-50922437D01*
X100185070Y-47822438D02*
X99385071Y-47822438D01*
X85385072Y-47822438D02*
X84585071Y-47822438D01*
X85385072Y-51922437D02*
X99385071Y-51922437D01*
X99385071Y-42022443D02*
X100185070Y-42022443D01*
X84585071Y-42022443D02*
X85385072Y-42022443D01*
X85385072Y-37922437D02*
X85385072Y-38922437D01*
X104385072Y-46772443D02*
X104385072Y-52572438D01*
X103585071Y-43672437D02*
X103585071Y-46772443D01*
X118385071Y-52572438D02*
X118385071Y-46772443D01*
X119185070Y-55672437D02*
X119185070Y-52572438D01*
X118385071Y-56672437D02*
X118385071Y-55672437D01*
X118385071Y-43672437D02*
X118385071Y-42672437D01*
X103585071Y-55672437D02*
X104385072Y-55672437D01*
X104385072Y-55672437D02*
X104385072Y-56672437D01*
X104385072Y-43672437D02*
X103585071Y-43672437D01*
X119185070Y-46772443D02*
X119185070Y-43672437D01*
X118385071Y-55672437D02*
X119185070Y-55672437D01*
X119185070Y-43672437D02*
X118385071Y-43672437D01*
X118385071Y-42672437D02*
X104385072Y-42672437D01*
X103585071Y-52572438D02*
X103585071Y-55672437D01*
X119185070Y-52572438D02*
X118385071Y-52572438D01*
X104385072Y-52572438D02*
X103585071Y-52572438D01*
X104385072Y-56672437D02*
X118385071Y-56672437D01*
X118385071Y-46772443D02*
X119185070Y-46772443D01*
X103585071Y-46772443D02*
X104385072Y-46772443D01*
X104385072Y-42672437D02*
X104385072Y-43672437D01*
X123385071Y-46772444D02*
X123385071Y-52572439D01*
X122585070Y-43672438D02*
X122585070Y-46772444D01*
X137385070Y-52572439D02*
X137385070Y-46772444D01*
X138185069Y-55672438D02*
X138185069Y-52572439D01*
X137385070Y-56672438D02*
X137385070Y-55672438D01*
X137385070Y-43672438D02*
X137385070Y-42672438D01*
X122585070Y-55672438D02*
X123385071Y-55672438D01*
X123385071Y-55672438D02*
X123385071Y-56672438D01*
X123385071Y-43672438D02*
X122585070Y-43672438D01*
X138185069Y-46772444D02*
X138185069Y-43672438D01*
X137385070Y-55672438D02*
X138185069Y-55672438D01*
X138185069Y-43672438D02*
X137385070Y-43672438D01*
X137385070Y-42672438D02*
X123385071Y-42672438D01*
X122585070Y-52572439D02*
X122585070Y-55672438D01*
X138185069Y-52572439D02*
X137385070Y-52572439D01*
X123385071Y-52572439D02*
X122585070Y-52572439D01*
X123385071Y-56672438D02*
X137385070Y-56672438D01*
X137385070Y-46772444D02*
X138185069Y-46772444D01*
X122585070Y-46772444D02*
X123385071Y-46772444D01*
X123385071Y-42672438D02*
X123385071Y-43672438D01*
X28385072Y-61022443D02*
X28385072Y-66822438D01*
X27585071Y-57922437D02*
X27585071Y-61022443D01*
X42385071Y-66822438D02*
X42385071Y-61022443D01*
X43185070Y-69922437D02*
X43185070Y-66822438D01*
X42385071Y-70922437D02*
X42385071Y-69922437D01*
X42385071Y-57922437D02*
X42385071Y-56922437D01*
X27585071Y-69922437D02*
X28385072Y-69922437D01*
X28385072Y-69922437D02*
X28385072Y-70922437D01*
X28385072Y-57922437D02*
X27585071Y-57922437D01*
X43185070Y-61022443D02*
X43185070Y-57922437D01*
X42385071Y-69922437D02*
X43185070Y-69922437D01*
X43185070Y-57922437D02*
X42385071Y-57922437D01*
X42385071Y-56922437D02*
X28385072Y-56922437D01*
X27585071Y-66822438D02*
X27585071Y-69922437D01*
X43185070Y-66822438D02*
X42385071Y-66822438D01*
X28385072Y-66822438D02*
X27585071Y-66822438D01*
X28385072Y-70922437D02*
X42385071Y-70922437D01*
X42385071Y-61022443D02*
X43185070Y-61022443D01*
X27585071Y-61022443D02*
X28385072Y-61022443D01*
X28385072Y-56922437D02*
X28385072Y-57922437D01*
X47385071Y-61022444D02*
X47385071Y-66822439D01*
X46585070Y-57922438D02*
X46585070Y-61022444D01*
X61385070Y-66822439D02*
X61385070Y-61022444D01*
X62185069Y-69922438D02*
X62185069Y-66822439D01*
X61385070Y-70922438D02*
X61385070Y-69922438D01*
X61385070Y-57922438D02*
X61385070Y-56922438D01*
X46585070Y-69922438D02*
X47385071Y-69922438D01*
X47385071Y-69922438D02*
X47385071Y-70922438D01*
X47385071Y-57922438D02*
X46585070Y-57922438D01*
X62185069Y-61022444D02*
X62185069Y-57922438D01*
X61385070Y-69922438D02*
X62185069Y-69922438D01*
X62185069Y-57922438D02*
X61385070Y-57922438D01*
X61385070Y-56922438D02*
X47385071Y-56922438D01*
X46585070Y-66822439D02*
X46585070Y-69922438D01*
X62185069Y-66822439D02*
X61385070Y-66822439D01*
X47385071Y-66822439D02*
X46585070Y-66822439D01*
X47385071Y-70922438D02*
X61385070Y-70922438D01*
X61385070Y-61022444D02*
X62185069Y-61022444D01*
X46585070Y-61022444D02*
X47385071Y-61022444D01*
X47385071Y-56922438D02*
X47385071Y-57922438D01*
X66385071Y-56272443D02*
X66385071Y-62072438D01*
X65585070Y-53172437D02*
X65585070Y-56272443D01*
X80385070Y-62072438D02*
X80385070Y-56272443D01*
X81185069Y-65172437D02*
X81185069Y-62072438D01*
X80385070Y-66172437D02*
X80385070Y-65172437D01*
X80385070Y-53172437D02*
X80385070Y-52172437D01*
X65585070Y-65172437D02*
X66385071Y-65172437D01*
X66385071Y-65172437D02*
X66385071Y-66172437D01*
X66385071Y-53172437D02*
X65585070Y-53172437D01*
X81185069Y-56272443D02*
X81185069Y-53172437D01*
X80385070Y-65172437D02*
X81185069Y-65172437D01*
X81185069Y-53172437D02*
X80385070Y-53172437D01*
X80385070Y-52172437D02*
X66385071Y-52172437D01*
X65585070Y-62072438D02*
X65585070Y-65172437D01*
X81185069Y-62072438D02*
X80385070Y-62072438D01*
X66385071Y-62072438D02*
X65585070Y-62072438D01*
X66385071Y-66172437D02*
X80385070Y-66172437D01*
X80385070Y-56272443D02*
X81185069Y-56272443D01*
X65585070Y-56272443D02*
X66385071Y-56272443D01*
X66385071Y-52172437D02*
X66385071Y-53172437D01*
X85385071Y-61022443D02*
X85385071Y-66822438D01*
X84585070Y-57922437D02*
X84585070Y-61022443D01*
X99385070Y-66822438D02*
X99385070Y-61022443D01*
X100185069Y-69922437D02*
X100185069Y-66822438D01*
X99385070Y-70922437D02*
X99385070Y-69922437D01*
X99385070Y-57922437D02*
X99385070Y-56922437D01*
X84585070Y-69922437D02*
X85385071Y-69922437D01*
X85385071Y-69922437D02*
X85385071Y-70922437D01*
X85385071Y-57922437D02*
X84585070Y-57922437D01*
X100185069Y-61022443D02*
X100185069Y-57922437D01*
X99385070Y-69922437D02*
X100185069Y-69922437D01*
X100185069Y-57922437D02*
X99385070Y-57922437D01*
X99385070Y-56922437D02*
X85385071Y-56922437D01*
X84585070Y-66822438D02*
X84585070Y-69922437D01*
X100185069Y-66822438D02*
X99385070Y-66822438D01*
X85385071Y-66822438D02*
X84585070Y-66822438D01*
X85385071Y-70922437D02*
X99385070Y-70922437D01*
X99385070Y-61022443D02*
X100185069Y-61022443D01*
X84585070Y-61022443D02*
X85385071Y-61022443D01*
X85385071Y-56922437D02*
X85385071Y-57922437D01*
X66385071Y-37272444D02*
X66385071Y-43072439D01*
X65585070Y-34172438D02*
X65585070Y-37272444D01*
X80385070Y-43072439D02*
X80385070Y-37272444D01*
X81185069Y-46172438D02*
X81185069Y-43072439D01*
X80385070Y-47172438D02*
X80385070Y-46172438D01*
X80385070Y-34172438D02*
X80385070Y-33172438D01*
X65585070Y-46172438D02*
X66385071Y-46172438D01*
X66385071Y-46172438D02*
X66385071Y-47172438D01*
X66385071Y-34172438D02*
X65585070Y-34172438D01*
X81185069Y-37272444D02*
X81185069Y-34172438D01*
X80385070Y-46172438D02*
X81185069Y-46172438D01*
X81185069Y-34172438D02*
X80385070Y-34172438D01*
X80385070Y-33172438D02*
X66385071Y-33172438D01*
X65585070Y-43072439D02*
X65585070Y-46172438D01*
X81185069Y-43072439D02*
X80385070Y-43072439D01*
X66385071Y-43072439D02*
X65585070Y-43072439D01*
X66385071Y-47172438D02*
X80385070Y-47172438D01*
X80385070Y-37272444D02*
X81185069Y-37272444D01*
X65585070Y-37272444D02*
X66385071Y-37272444D01*
X66385071Y-33172438D02*
X66385071Y-34172438D01*
M02*
