G04 #@! TF.GenerationSoftware,KiCad,Pcbnew,(5.99.0-10089-gf88d39b4f0)*
G04 #@! TF.CreationDate,2021-04-09T11:44:42+02:00*
G04 #@! TF.ProjectId,blackwing,626c6163-6b77-4696-9e67-2e6b69636164,rev?*
G04 #@! TF.SameCoordinates,Original*
G04 #@! TF.FileFunction,Legend,Bot*
G04 #@! TF.FilePolarity,Positive*
%FSLAX46Y46*%
G04 Gerber Fmt 4.6, Leading zero omitted, Abs format (unit mm)*
G04 Created by KiCad (PCBNEW (5.99.0-10089-gf88d39b4f0)) date 2021-04-09 11:44:42*
%MOMM*%
%LPD*%
G01*
G04 APERTURE LIST*
%ADD10C,0.150000*%
G04 APERTURE END LIST*
D10*
X166513333Y-9072880D02*
X166180000Y-10072880D01*
X165846666Y-9072880D01*
X164941904Y-9977642D02*
X164989523Y-10025261D01*
X165132380Y-10072880D01*
X165227619Y-10072880D01*
X165370476Y-10025261D01*
X165465714Y-9930023D01*
X165513333Y-9834785D01*
X165560952Y-9644309D01*
X165560952Y-9501452D01*
X165513333Y-9310976D01*
X165465714Y-9215738D01*
X165370476Y-9120500D01*
X165227619Y-9072880D01*
X165132380Y-9072880D01*
X164989523Y-9120500D01*
X164941904Y-9168119D01*
X163941904Y-9977642D02*
X163989523Y-10025261D01*
X164132380Y-10072880D01*
X164227619Y-10072880D01*
X164370476Y-10025261D01*
X164465714Y-9930023D01*
X164513333Y-9834785D01*
X164560952Y-9644309D01*
X164560952Y-9501452D01*
X164513333Y-9310976D01*
X164465714Y-9215738D01*
X164370476Y-9120500D01*
X164227619Y-9072880D01*
X164132380Y-9072880D01*
X163989523Y-9120500D01*
X163941904Y-9168119D01*
X165775238Y-17597642D02*
X165822857Y-17645261D01*
X165965714Y-17692880D01*
X166060952Y-17692880D01*
X166203809Y-17645261D01*
X166299047Y-17550023D01*
X166346666Y-17454785D01*
X166394285Y-17264309D01*
X166394285Y-17121452D01*
X166346666Y-16930976D01*
X166299047Y-16835738D01*
X166203809Y-16740500D01*
X166060952Y-16692880D01*
X165965714Y-16692880D01*
X165822857Y-16740500D01*
X165775238Y-16788119D01*
X164870476Y-17692880D02*
X165346666Y-17692880D01*
X165346666Y-16692880D01*
X164537142Y-17692880D02*
X164537142Y-16692880D01*
X163965714Y-17692880D02*
X164394285Y-17121452D01*
X163965714Y-16692880D02*
X164537142Y-17264309D01*
X165703809Y-15152880D02*
X165703809Y-14152880D01*
X165037142Y-14152880D02*
X164846666Y-14152880D01*
X164751428Y-14200500D01*
X164656190Y-14295738D01*
X164608571Y-14486214D01*
X164608571Y-14819547D01*
X164656190Y-15010023D01*
X164751428Y-15105261D01*
X164846666Y-15152880D01*
X165037142Y-15152880D01*
X165132380Y-15105261D01*
X165227619Y-15010023D01*
X165275238Y-14819547D01*
X165275238Y-14486214D01*
X165227619Y-14295738D01*
X165132380Y-14200500D01*
X165037142Y-14152880D01*
X165941904Y-11660500D02*
X166037142Y-11612880D01*
X166180000Y-11612880D01*
X166322857Y-11660500D01*
X166418095Y-11755738D01*
X166465714Y-11850976D01*
X166513333Y-12041452D01*
X166513333Y-12184309D01*
X166465714Y-12374785D01*
X166418095Y-12470023D01*
X166322857Y-12565261D01*
X166180000Y-12612880D01*
X166084761Y-12612880D01*
X165941904Y-12565261D01*
X165894285Y-12517642D01*
X165894285Y-12184309D01*
X166084761Y-12184309D01*
X165465714Y-12612880D02*
X165465714Y-11612880D01*
X164894285Y-12612880D01*
X164894285Y-11612880D01*
X164418095Y-12612880D02*
X164418095Y-11612880D01*
X164180000Y-11612880D01*
X164037142Y-11660500D01*
X163941904Y-11755738D01*
X163894285Y-11850976D01*
X163846666Y-12041452D01*
X163846666Y-12184309D01*
X163894285Y-12374785D01*
X163941904Y-12470023D01*
X164037142Y-12565261D01*
X164180000Y-12612880D01*
X164418095Y-12612880D01*
M02*
