M48
; DRILL file {KiCad (5.99.0-10089-gf88d39b4f0)} date Fri Apr  9 11:44:46 2021
; FORMAT={-:-/ absolute / inch / decimal}
; #@! TF.CreationDate,2021-04-09T11:44:46+02:00
; #@! TF.GenerationSoftware,Kicad,Pcbnew,(5.99.0-10089-gf88d39b4f0)
; #@! TF.FileFunction,Plated,1,2,PTH
FMAT,2
INCH
; #@! TA.AperFunction,Plated,PTH,ViaDrill
T1C0.0130
; #@! TA.AperFunction,Plated,PTH,ComponentDrill
T2C0.0157
; #@! TA.AperFunction,Plated,PTH,ComponentDrill
T3C0.0197
; #@! TA.AperFunction,Plated,PTH,ComponentDrill
T4C0.0236
; #@! TA.AperFunction,Plated,PTH,ComponentDrill
T5C0.0295
; #@! TA.AperFunction,Plated,PTH,ComponentDrill
T6C0.0394
; #@! TA.AperFunction,Plated,PTH,ComponentDrill
T7C0.0402
; #@! TA.AperFunction,Plated,PTH,ComponentDrill
T8C0.0591
; #@! TA.AperFunction,Plated,PTH,ComponentDrill
T9C0.0787
%
G90
G05
T1
X6.0331Y-0.7588
X6.0661Y-0.8934
T2
X6.2295Y-1.7363
X6.2295Y-1.7697
X6.2295Y-1.8032
X6.2295Y-1.8367
X6.2295Y-1.8701
X6.2295Y-1.9036
X6.2295Y-1.9371
X6.2295Y-1.9705
X6.2826Y-1.7363
X6.2826Y-1.7697
X6.2826Y-1.8032
X6.2826Y-1.8367
X6.2826Y-1.8701
X6.2826Y-1.9036
X6.2826Y-1.9371
X6.2826Y-1.9705
T5
X5.6661Y-1.2984
X5.7448Y-1.2984
T6
X5.9525Y-1.0666
X5.9525Y-1.2634
X6.4031Y-0.3788
X6.4031Y-0.4788
X6.4031Y-0.5788
X6.4031Y-0.6788
X6.5234Y-1.0666
X6.5234Y-1.165
X6.5234Y-1.2634
T7
X5.858Y-3.6534
X6.358Y-3.6534
T8
X0.4492Y-3.6157
X0.5764Y-3.3784
X0.93Y-4.1887
X1.0572Y-3.9514
X1.2598Y-0.4084
X1.2598Y-1.1564
X1.2598Y-1.9044
X1.2598Y-2.6525
X1.5098Y-0.3084
X1.5098Y-1.0564
X1.5098Y-1.8044
X1.5098Y-2.5525
X1.5986Y-3.7601
X1.7993Y-3.5806
X2.0079Y-0.4084
X2.0079Y-1.1564
X2.0079Y-1.9044
X2.0079Y-2.6525
X2.2579Y-0.3084
X2.2579Y-1.0564
X2.2579Y-1.8044
X2.2579Y-2.5525
X2.3819Y-3.5875
X2.6319Y-3.4875
X2.7559Y-0.2214
X2.7559Y-0.9694
X2.7559Y-1.7174
X2.7559Y-2.4655
X3.0059Y-0.1214
X3.0059Y-0.8694
X3.0059Y-1.6174
X3.0059Y-2.3655
X3.2234Y-3.5875
X3.4734Y-3.4875
X3.5039Y-0.4084
X3.5039Y-1.1564
X3.5039Y-1.9044
X3.5039Y-2.6525
X3.7539Y-0.3084
X3.7539Y-1.0564
X3.7539Y-1.8044
X3.7539Y-2.5525
X4.065Y-3.5875
X4.252Y-0.5954
X4.252Y-1.3434
X4.252Y-2.0914
X4.252Y-2.8395
X4.315Y-3.4875
X4.502Y-0.4954
X4.502Y-1.2434
X4.502Y-1.9914
X4.502Y-2.7395
X4.9065Y-3.5875
X5.0Y-0.5954
X5.0Y-1.3434
X5.0Y-2.0914
X5.0Y-2.8395
X5.1565Y-3.4875
X5.25Y-0.4954
X5.25Y-1.2434
X5.25Y-1.9914
X5.25Y-2.7395
T3
G00X5.6998Y-0.6297
M15
G01X5.7192Y-0.633
M16
G05
G00X5.7069Y-0.587
M15
G01X5.7263Y-0.5903
M16
G05
G00X5.714Y-0.5443
M15
G01X5.7334Y-0.5475
M16
G05
G00X5.7211Y-0.5016
M15
G01X5.7405Y-0.5048
M16
G05
G00X5.7282Y-0.4589
M15
G01X5.7477Y-0.4621
M16
G05
G00X5.7354Y-0.4162
M15
G01X5.7548Y-0.4194
M16
G05
G00X5.7425Y-0.3734
M15
G01X5.7619Y-0.3767
M16
G05
G00X5.7496Y-0.3307
M15
G01X5.769Y-0.334
M16
G05
G00X5.7567Y-0.288
M15
G01X5.7761Y-0.2912
M16
G05
G00X6.0299Y-0.6848
M15
G01X6.0493Y-0.688
M16
G05
G00X6.037Y-0.642
M15
G01X6.0564Y-0.6453
M16
G05
G00X6.0441Y-0.5993
M15
G01X6.0635Y-0.6026
M16
G05
G00X6.0512Y-0.5566
M15
G01X6.0706Y-0.5598
M16
G05
G00X6.0583Y-0.5139
M15
G01X6.0778Y-0.5171
M16
G05
G00X6.0655Y-0.4712
M15
G01X6.0849Y-0.4744
M16
G05
G00X6.0726Y-0.4284
M15
G01X6.092Y-0.4317
M16
G05
G00X6.0797Y-0.3857
M15
G01X6.0991Y-0.389
M16
G05
G00X6.0868Y-0.343
M15
G01X6.1062Y-0.3463
M16
G05
T4
G00X6.2385Y-1.6831
M15
G01X6.2976Y-1.6831
M16
G05
G00X6.2385Y-2.0237
M15
G01X6.2976Y-2.0237
M16
G05
G00X6.3854Y-1.6831
M15
G01X6.4169Y-1.6831
M16
G05
G00X6.3854Y-2.0237
M15
G01X6.4169Y-2.0237
M16
G05
T9
G00X6.238Y-0.9445
M15
G01X6.2183Y-0.9445
M16
G05
G00X6.238Y-1.3855
M15
G01X6.2183Y-1.3855
M16
G05
T0
M30
