M48
; DRILL file {KiCad (5.99.0-10089-gf88d39b4f0)} date Fri Apr  9 11:44:46 2021
; FORMAT={-:-/ absolute / inch / decimal}
; #@! TF.CreationDate,2021-04-09T11:44:46+02:00
; #@! TF.GenerationSoftware,Kicad,Pcbnew,(5.99.0-10089-gf88d39b4f0)
; #@! TF.FileFunction,NonPlated,1,2,NPTH
FMAT,2
INCH
; #@! TA.AperFunction,NonPlated,NPTH,ComponentDrill
T1C0.0669
; #@! TA.AperFunction,NonPlated,NPTH,ComponentDrill
T2C0.1358
; #@! TA.AperFunction,NonPlated,NPTH,ComponentDrill
T3C0.1575
%
G90
G05
T1
X0.244Y-3.5268
X0.5504Y-3.2697
X0.7248Y-4.0998
X1.0312Y-3.8427
X1.1598Y-0.2084
X1.1598Y-0.9564
X1.1598Y-1.7044
X1.1598Y-2.4525
X1.4362Y-3.6064
X1.5598Y-0.2084
X1.5598Y-0.9564
X1.5598Y-1.7044
X1.5598Y-2.4525
X1.8121Y-3.4696
X1.9079Y-0.2084
X1.9079Y-0.9564
X1.9079Y-1.7044
X1.9079Y-2.4525
X2.2819Y-3.3875
X2.3079Y-0.2084
X2.3079Y-0.9564
X2.3079Y-1.7044
X2.3079Y-2.4525
X2.6559Y-0.0214
X2.6559Y-0.7694
X2.6559Y-1.5174
X2.6559Y-2.2655
X2.6819Y-3.3875
X3.0559Y-0.0214
X3.0559Y-0.7694
X3.0559Y-1.5174
X3.0559Y-2.2655
X3.1234Y-3.3875
X3.4039Y-0.2084
X3.4039Y-0.9564
X3.4039Y-1.7044
X3.4039Y-2.4525
X3.5234Y-3.3875
X3.8039Y-0.2084
X3.8039Y-0.9564
X3.8039Y-1.7044
X3.8039Y-2.4525
X3.965Y-3.3875
X4.152Y-0.3954
X4.152Y-1.1434
X4.152Y-1.8914
X4.152Y-2.6395
X4.365Y-3.3875
X4.552Y-0.3954
X4.552Y-1.1434
X4.552Y-1.8914
X4.552Y-2.6395
X4.8065Y-3.3875
X4.9Y-0.3954
X4.9Y-1.1434
X4.9Y-1.8914
X4.9Y-2.6395
X5.2065Y-3.3875
X5.3Y-0.3954
X5.3Y-1.1434
X5.3Y-1.8914
X5.3Y-2.6395
T2
X6.0154Y-3.3132
X6.2005Y-2.1333
T3
X0.3972Y-3.3982
X0.878Y-3.9712
X1.3598Y-0.2084
X1.3598Y-0.9564
X1.3598Y-1.7044
X1.3598Y-2.4525
X1.6242Y-3.538
X2.1079Y-0.2084
X2.1079Y-0.9564
X2.1079Y-1.7044
X2.1079Y-2.4525
X2.4819Y-3.3875
X2.8559Y-0.0214
X2.8559Y-0.7694
X2.8559Y-1.5174
X2.8559Y-2.2655
X3.3234Y-3.3875
X3.6039Y-0.2084
X3.6039Y-0.9564
X3.6039Y-1.7044
X3.6039Y-2.4525
X4.165Y-3.3875
X4.352Y-0.3954
X4.352Y-1.1434
X4.352Y-1.8914
X4.352Y-2.6395
X5.0065Y-3.3875
X5.1Y-0.3954
X5.1Y-1.1434
X5.1Y-1.8914
X5.1Y-2.6395
T0
M30
